<svg width="132" height="31" viewBox="0 0 132 31" fill="none" xmlns="http://www.w3.org/2000/svg">
<path d="M131.466 18.2176H80.8574V29.8941H131.466V18.2176Z" fill="#E9001E"/>
<path fill-rule="evenodd" clip-rule="evenodd" d="M28.1673 0.981456V12.8835H25.4216V5.43975L19.9673 12.8835H17.5927V0.981456H20.3384V8.66406L25.8669 0.981456H28.1673ZM31.451 0.981456H34.2524V5.47956H39.0944V0.981456H41.8772V12.8835H39.0944V7.6689H34.2524V12.8835H31.451V0.981456ZM49.8731 0.981456H52.6559L57.331 10.7539H58.9451V14.6549H56.2921V12.8835H46.2926V14.6549H43.6397V10.7539H45.2537L49.8731 0.981456ZM51.2831 4.10624L48.1107 10.7539H54.474L51.2831 4.10624ZM64.7518 10.1767L59.5944 0.981456H62.6926L66.1061 7.62909L68.9075 0.981456H71.7645L67.9057 9.49999C67.2378 10.9529 66.5143 11.9282 65.7536 12.4257C64.9745 12.9233 64.1396 13.1622 63.2677 13.1622C61.8392 13.1622 60.522 12.585 59.3161 11.4306L61.1342 9.93786C61.8577 10.6345 62.5627 10.9728 63.2677 10.9728C63.5831 10.9728 63.8428 10.9131 64.0469 10.7937C64.2138 10.6544 64.455 10.4553 64.7518 10.1767ZM86.94 3.05138L85.0106 4.56402C83.6934 3.42954 82.2278 2.85235 80.5767 2.85235C79.1853 2.85235 78.0165 3.25041 77.0704 4.02663C76.1242 4.80285 75.6419 5.7582 75.6419 6.89268C75.6419 7.6888 75.8459 8.38541 76.2726 9.00241C76.6993 9.61941 77.293 10.0971 78.0536 10.4553C78.8142 10.8136 79.6676 10.9728 80.6138 10.9728C81.4115 10.9728 82.1536 10.8534 82.8029 10.6146C83.4708 10.3757 84.1943 9.91795 84.9921 9.28105L86.8658 10.8932C85.7898 11.749 84.788 12.3461 83.8418 12.6845C82.8957 13.0228 81.8011 13.1821 80.5767 13.1821C78.3319 13.1821 76.4767 12.6049 75.0482 11.4306C73.6197 10.2563 72.8962 8.76357 72.8962 6.93248C72.8962 5.7383 73.2301 4.68343 73.8794 3.76789C74.5287 2.85235 75.4563 2.09603 76.6808 1.53874C77.9052 0.981457 79.2038 0.702812 80.6138 0.702812C81.8011 0.702812 82.9513 0.901843 84.0645 1.31981C85.1776 1.71787 86.1237 2.29506 86.94 3.05138ZM87.9418 0.981456H95.9377V3.2106H93.3034V12.8636H90.502V3.2106H87.9418V0.981456ZM97.7929 0.981456H100.724C102.301 0.981456 103.451 1.10088 104.138 1.33971C104.843 1.57855 105.399 1.97661 105.789 2.51399C106.197 3.05138 106.401 3.68828 106.401 4.4446C106.401 5.28053 106.141 5.95723 105.603 6.51452C105.084 7.07181 104.36 7.44997 103.451 7.6689C102.913 7.78832 101.949 7.84803 100.539 7.84803V12.8835H97.7929V0.981456ZM100.539 5.61888H101.429C102.116 5.61888 102.598 5.57907 102.876 5.49946C103.154 5.41985 103.359 5.28053 103.526 5.1014C103.674 4.92227 103.748 4.68344 103.748 4.42469C103.748 3.96692 103.526 3.62857 103.099 3.40963C102.783 3.25041 102.19 3.1708 101.336 3.1708H100.557V5.61888H100.539ZM119.629 0.981456V12.8835H116.883V5.43975L111.429 12.8835H109.054V0.981456H111.8V8.66406L117.328 0.981456H119.629ZM131.465 0.981456V12.8835H128.719V8.08687H128.033L125.101 12.8835H122.096L125.38 7.70871C123.487 7.27084 122.523 6.21597 122.523 4.60382C122.523 4.02663 122.616 3.50915 122.82 3.09119C123.024 2.65332 123.302 2.29506 123.673 1.99651C124.044 1.69797 124.471 1.47903 124.953 1.33971C125.435 1.20039 125.825 1.12078 126.122 1.10087C126.419 1.08097 127.216 1.06107 128.534 1.02126H131.465V0.981456ZM128.719 5.87762V3.1907H127.977C127.291 3.1907 126.79 3.23051 126.493 3.29022C126.196 3.34993 125.936 3.50915 125.751 3.72809C125.565 3.94702 125.473 4.22566 125.473 4.56402C125.473 5.06159 125.658 5.39995 126.048 5.59898C126.419 5.79801 127.031 5.89752 127.866 5.89752H128.719V5.87762ZM24.4384 17.9787C26.4791 17.9787 28.2415 18.5957 29.7071 19.8098C31.1727 21.0239 31.9148 22.5166 31.9148 24.2681C31.9148 25.9997 31.1913 27.4725 29.7257 28.6667C28.2786 29.8609 26.5162 30.4779 24.4384 30.4779C22.2678 30.4779 20.4682 29.8609 19.0212 28.6269C17.5927 27.3929 16.8691 25.9201 16.8691 24.2283C16.8691 23.0938 17.2031 22.0389 17.8709 21.0836C18.5388 20.1282 19.4664 19.3719 20.6352 18.8146C21.8225 18.2574 23.0841 17.9787 24.4384 17.9787ZM24.4012 20.2079C23.0655 20.2079 21.9524 20.586 21.0433 21.3622C20.1343 22.1186 19.6705 23.0938 19.6705 24.288C19.6705 25.6016 20.2456 26.6366 21.3958 27.4128C22.2863 28.0099 23.3067 28.3084 24.4569 28.3084C25.7555 28.3084 26.8687 27.9104 27.7777 27.1341C28.6868 26.3579 29.1506 25.4026 29.1506 24.2681C29.1506 23.1336 28.6868 22.1783 27.7592 21.402C26.8501 20.6059 25.7184 20.2079 24.4012 20.2079ZM34.5677 18.2773H37.3505V22.3972L41.265 18.2773H44.5858L39.5397 23.5914L45.0867 30.1793H41.8216L37.3691 24.8851V30.1793H34.5863V18.2773H34.5677ZM53.8618 17.9787C55.9025 17.9787 57.665 18.5957 59.1306 19.8098C60.5962 21.0239 61.3383 22.5166 61.3383 24.2681C61.3383 25.9997 60.6147 27.4725 59.1677 28.6667C57.7206 29.8609 55.9582 30.4779 53.8804 30.4779C51.7098 30.4779 49.9102 29.8609 48.4632 28.6269C47.0347 27.3929 46.3112 25.9201 46.3112 24.2283C46.3112 23.0938 46.6451 22.0389 47.313 21.0836C47.9808 20.1282 48.9084 19.3719 50.0772 18.8146C51.246 18.2574 52.5075 17.9787 53.8618 17.9787ZM53.8247 20.2079C52.489 20.2079 51.3759 20.586 50.4668 21.3622C49.5578 22.1186 49.094 23.0938 49.094 24.288C49.094 25.6016 49.6691 26.6366 50.8193 27.4128C51.7098 28.0099 52.7301 28.3084 53.8804 28.3084C55.179 28.3084 56.2921 27.9104 57.2012 27.1341C58.1102 26.3579 58.574 25.4026 58.574 24.2681C58.574 23.1336 58.1102 22.1783 57.1826 21.402C56.2736 20.6059 55.1419 20.2079 53.8247 20.2079ZM63.9541 18.2773H66.7555V22.7754H71.579V18.2773H74.3618V30.1793H71.579V24.9647H66.7555V30.1793H63.9541V18.2773Z" fill="#E9001E"/>
<path fill-rule="evenodd" clip-rule="evenodd" d="M0 10.3275V12.924L13.8691 5.8781L13.8464 0.477867L0 10.3275Z" fill="black"/>
<path fill-rule="evenodd" clip-rule="evenodd" d="M3.1639 25.102L3.12988 12.278L13.8464 7.01183L13.767 30.4047L3.1639 25.102ZM4.77421 13.3629V18.3608H7.34843V12.3145L4.77421 13.3629ZM8.02885 12.0951V18.3608H11.7144V10.6567L8.02885 12.0951ZM4.78555 19.0069V23.9805L7.35977 24.9313V19.0069H4.78555ZM8.01751 19.0069V25.1751L11.7144 26.516V19.0069H8.01751Z" fill="black"/>
<path fill-rule="evenodd" clip-rule="evenodd" d="M85.5107 27.4397L87.9567 20.672H88.8902L91.4856 27.4397H90.5333L89.8051 25.3955H87.1165L86.4256 27.4397H85.5107ZM87.3405 24.6612H89.5064L88.8342 22.7758C88.6289 22.2002 88.4795 21.7437 88.3861 21.3666C88.2928 21.8033 88.1807 22.2399 88.0314 22.6765L87.3405 24.6612ZM92.1017 27.4397V20.672H92.9419V26.6459H96.0787V27.4397H92.1017ZM97.2363 27.4397V20.672H98.0765V27.4397H97.2363ZM99.5889 27.4397V20.672H102.408C102.968 20.672 103.417 20.7315 103.697 20.8506C103.995 20.9697 104.219 21.188 104.406 21.4857C104.574 21.7834 104.668 22.1407 104.668 22.4979C104.668 22.9742 104.518 23.391 104.219 23.7086C103.921 24.0459 103.473 24.2444 102.856 24.3437C103.08 24.4627 103.248 24.562 103.361 24.681C103.603 24.9192 103.846 25.2169 104.051 25.5741L105.153 27.4199H104.107L103.267 26.0108C103.024 25.594 102.819 25.2963 102.67 25.078C102.502 24.8597 102.371 24.7207 102.24 24.6215C102.11 24.5421 101.979 24.4826 101.848 24.4429C101.755 24.423 101.605 24.4032 101.381 24.4032H100.41V27.4199H99.5889V27.4397ZM100.429 23.649H102.24C102.632 23.649 102.931 23.6093 103.136 23.5299C103.361 23.4505 103.51 23.3116 103.622 23.133C103.734 22.9544 103.79 22.7361 103.79 22.5178C103.79 22.2002 103.678 21.9422 103.473 21.7239C103.249 21.5254 102.912 21.4063 102.446 21.4063H100.429V23.649ZM105.732 24.1452C105.732 23.0139 106.012 22.1407 106.591 21.5056C107.151 20.8705 107.898 20.5529 108.794 20.5529C109.391 20.5529 109.914 20.7117 110.381 21.0094C110.848 21.3071 111.221 21.7239 111.464 22.2597C111.707 22.7956 111.837 23.391 111.837 24.0658C111.837 24.7604 111.707 25.3757 111.445 25.9115C111.184 26.4474 110.81 26.8642 110.344 27.142C109.858 27.4199 109.354 27.5588 108.794 27.5588C108.196 27.5588 107.655 27.4 107.188 27.1023C106.721 26.8046 106.367 26.368 106.124 25.852C105.844 25.2963 105.732 24.7207 105.732 24.1452ZM106.609 24.1452C106.609 24.9589 106.815 25.594 107.225 26.0703C107.636 26.5466 108.159 26.765 108.775 26.765C109.41 26.765 109.933 26.5268 110.344 26.0505C110.754 25.5741 110.96 24.8994 110.96 24.046C110.96 23.4902 110.866 23.0139 110.698 22.5971C110.53 22.1804 110.269 21.8628 109.933 21.6445C109.597 21.4262 109.223 21.3071 108.794 21.3071C108.196 21.3071 107.692 21.5254 107.263 21.962C106.815 22.4185 106.609 23.133 106.609 24.1452ZM113.032 27.4397V26.4871H113.929V27.4397H113.032ZM115.404 27.4397V20.672H118.223C118.783 20.672 119.231 20.7315 119.511 20.8506C119.81 20.9697 120.034 21.188 120.221 21.4857C120.389 21.7834 120.482 22.1407 120.482 22.4979C120.482 22.9742 120.333 23.391 120.034 23.7086C119.735 24.0459 119.287 24.2444 118.671 24.3437C118.895 24.4627 119.063 24.562 119.175 24.681C119.418 24.9192 119.661 25.2169 119.866 25.5741L120.968 27.4199H119.922L119.082 26.0108C118.839 25.594 118.634 25.2963 118.484 25.078C118.316 24.8597 118.186 24.7207 118.055 24.6215C117.924 24.5421 117.793 24.4826 117.663 24.4429C117.569 24.423 117.42 24.4032 117.196 24.4032H116.225V27.4199H115.404V27.4397ZM116.244 23.649H118.055C118.447 23.649 118.746 23.6093 118.951 23.5299C119.175 23.4505 119.325 23.3116 119.437 23.133C119.549 22.9544 119.605 22.7361 119.605 22.5178C119.605 22.2002 119.493 21.9422 119.287 21.7239C119.063 21.5254 118.727 21.4063 118.26 21.4063H116.244V23.649ZM125.972 20.6522H126.812V24.562C126.812 25.2368 126.737 25.7925 126.588 26.1894C126.438 26.5863 126.177 26.9237 125.803 27.1619C125.43 27.4199 124.926 27.539 124.31 27.539C123.712 27.539 123.227 27.4397 122.853 27.2016C122.48 26.9833 122.2 26.6657 122.051 26.2489C121.882 25.8322 121.808 25.2764 121.808 24.5421V20.6323H122.648V24.5421C122.648 25.1375 122.704 25.5741 122.797 25.852C122.891 26.1299 123.077 26.3482 123.32 26.4871C123.563 26.6459 123.88 26.7054 124.235 26.7054C124.851 26.7054 125.299 26.5466 125.561 26.2489C125.822 25.9512 125.953 25.3757 125.953 24.5223V20.6522H125.972Z" fill="white"/>
</svg>
