<svg width="68" height="68" viewBox="0 0 68 68" fill="none" xmlns="http://www.w3.org/2000/svg">
<path d="M65.8328 53.0314H61.4531V28.1442C61.4531 12.8064 49.0106 0.329102 33.7154 0.329102C18.4203 0.329102 5.9777 12.8064 5.9777 28.1442V53.0314H1.59806C0.79221 53.0314 0.138184 53.6857 0.138184 54.4953V60.3511C0.138184 64.3872 3.41269 67.6709 7.43758 67.6709H59.9933C64.0181 67.6709 67.2927 64.3872 67.2927 60.3511V54.4953C67.2927 53.6857 66.6386 53.0314 65.8328 53.0314ZM8.89746 28.1442C8.89746 14.4211 20.0305 3.257 33.7154 3.257C47.4003 3.257 58.5334 14.4211 58.5334 28.1442V53.0314H52.6939V28.1442C52.6939 17.6506 44.1798 9.11281 33.7154 9.11281C23.251 9.11281 14.737 17.6506 14.737 28.1442V53.0314H8.89746V28.1442ZM17.6567 53.0314V48.6395C17.6567 46.2181 19.6217 44.2477 22.0364 44.2477H45.3945C47.8091 44.2477 49.7741 46.2181 49.7741 48.6395V53.0314H17.6567ZM49.7741 42.8218C48.5507 41.8922 47.0441 41.3197 45.3945 41.3197H22.0364C20.3867 41.3197 18.8801 41.8922 17.6567 42.8218V32.536H24.9561C28.6686 32.536 31.9256 30.5407 33.7154 27.563C35.5052 30.5407 38.7622 32.536 42.4747 32.536H49.7741V42.8218ZM49.7741 29.6081H42.4747C38.4498 29.6081 35.1753 26.3245 35.1753 22.2884C35.1753 21.4788 34.5213 20.8244 33.7154 20.8244C32.9096 20.8244 32.2555 21.4788 32.2555 22.2884C32.2555 26.3245 28.981 29.6081 24.9561 29.6081H17.6567V28.1442C17.6567 19.2653 24.8612 12.0407 33.7154 12.0407C42.5696 12.0407 49.7741 19.2653 49.7741 28.1442V29.6081ZM64.3729 60.3511C64.3729 62.7725 62.4079 64.743 59.9933 64.743H7.43758C5.02294 64.743 3.05794 62.7725 3.05794 60.3511V55.9593H64.3729V60.3511Z" fill="url(#paint0_linear)"/>
<defs>
<linearGradient id="paint0_linear" x1="28.7838" y1="-18.7254" x2="69.8254" y2="44.0703" gradientUnits="userSpaceOnUse">
<stop stop-color="#FF2E2E"/>
<stop offset="1" stop-color="#D52E43"/>
</linearGradient>
</defs>
</svg>
