<svg width="70" height="62" viewBox="0 0 70 62" fill="none" xmlns="http://www.w3.org/2000/svg">
<path d="M18.6906 4.72694C19.2525 4.72694 19.7077 4.27104 19.7077 3.70869V1.77155C19.7077 1.2092 19.2525 0.753296 18.6906 0.753296C18.1288 0.753296 17.6736 1.2092 17.6736 1.77155V3.70855C17.6736 4.27104 18.1289 4.72694 18.6906 4.72694Z" fill="url(#paint0_linear)"/>
<path d="M17.6736 19.5834V21.5204C17.6736 22.0828 18.1288 22.5387 18.6906 22.5387C19.2525 22.5387 19.7077 22.0828 19.7077 21.5204V19.5834C19.7077 19.0211 19.2525 18.5652 18.6906 18.5652C18.1288 18.5652 17.6736 19.0211 17.6736 19.5834Z" fill="url(#paint1_linear)"/>
<path d="M12.3655 6.75343C12.7623 7.15095 13.4063 7.15123 13.8039 6.75343C14.2011 6.35576 14.2011 5.711 13.8037 5.31334L12.4356 3.94372C12.0385 3.54592 11.3945 3.54605 10.9972 3.94372C10.6 4.34138 10.6 4.98614 10.9973 5.3838L12.3655 6.75343Z" fill="url(#paint2_linear)"/>
<path d="M25.016 16.5386C24.6187 16.1409 23.9748 16.1409 23.5775 16.5386C23.1803 16.9363 23.1803 17.581 23.5775 17.9787L24.9456 19.3485C25.343 19.7461 25.9868 19.7461 26.3842 19.3485C26.7815 18.9508 26.7814 18.306 26.3842 17.9084L25.016 16.5386Z" fill="url(#paint3_linear)"/>
<path d="M8.8279 12.6643H10.7627C11.3246 12.6643 11.7798 12.2084 11.7798 11.6461C11.7798 11.0837 11.3246 10.6278 10.7627 10.6278H8.8279C8.26608 10.6278 7.81085 11.0837 7.81085 11.6461C7.81085 12.2084 8.26608 12.6643 8.8279 12.6643Z" fill="url(#paint4_linear)"/>
<path d="M25.6016 11.6461C25.6016 12.2084 26.0568 12.6643 26.6186 12.6643H28.5535C29.1153 12.6643 29.5705 12.2084 29.5705 11.6461C29.5705 11.0837 29.1153 10.6278 28.5535 10.6278H26.6186C26.057 10.6278 25.6016 11.0837 25.6016 11.6461Z" fill="url(#paint5_linear)"/>
<path d="M12.3653 16.5386L10.9972 17.9084C10.3543 18.552 10.8187 19.6467 11.7165 19.6467C11.9767 19.6467 12.2371 19.5474 12.4357 19.3485L13.8039 17.9787C14.2011 17.581 14.2011 16.9363 13.8039 16.5386C13.4065 16.1409 12.7627 16.1409 12.3653 16.5386Z" fill="url(#paint6_linear)"/>
<path d="M25.0159 6.75343L26.384 5.3838C26.7814 4.98614 26.7814 4.34152 26.3842 3.94372C25.987 3.54605 25.343 3.54592 24.9458 3.94372L23.5775 5.31334C23.1802 5.711 23.1802 6.35563 23.5774 6.75343C23.9746 7.15109 24.6188 7.15123 25.0159 6.75343Z" fill="url(#paint7_linear)"/>
<path d="M69.4282 57.867C69.3532 55.9974 67.6126 54.4748 65.6631 54.7948C64.8798 53.2952 68.3027 60.1337 54.2421 31.9796L49.4226 22.3292C48.4662 20.414 45.7374 20.4203 44.7842 22.3292C44.3521 23.1945 41.5331 28.8391 40.9488 30.0088L35.1817 18.4609C34.3138 16.7223 31.8329 16.7223 30.9647 18.4609L26.237 27.9276C26.037 28.328 25.4645 28.331 25.2631 27.9276C24.3948 26.1891 21.9141 26.1892 21.046 27.9276L13.3988 43.2407L13.1916 42.8257C12.5506 41.5422 10.7307 41.5554 10.0964 42.8257C10.0964 42.8255 10.0964 42.8258 10.0964 42.8257L1.91356 59.2102H1.01705C0.455234 59.2102 0 59.6661 0 60.2285C0 60.7908 0.455234 61.2467 1.01705 61.2467C2.11534 61.2467 51.1461 61.2467 52.2411 61.2467C52.8029 61.2467 53.2581 60.7908 53.2581 60.2285C53.2581 59.6661 52.8029 59.2102 52.2411 59.2102H40.9746C40.5201 59.2102 40.1548 58.8388 40.1609 58.3837C40.1673 57.9374 40.5809 57.5301 41.0639 57.5861C41.8388 57.6761 42.534 57.1658 42.68 56.3992C42.8535 55.4901 43.6511 54.8312 44.5752 54.8312C45.2551 54.8312 45.9035 55.1969 46.2525 55.8105C46.5872 56.3989 47.2686 56.6991 47.9113 56.5579C48.0591 56.5254 48.3995 56.3753 48.8675 56.5264C50.0567 56.9105 50.2839 55.8399 51.4307 56.0682C52.2296 56.2277 52.9982 55.6854 53.1052 54.8837C53.3146 53.3153 54.6648 52.1327 56.246 52.1327C57.3877 52.1327 58.4464 52.7539 59.0084 53.7539C59.3347 54.3343 59.9566 54.6672 60.5904 54.6389C60.7366 54.6324 60.8836 54.6068 61.0276 54.5605C62.2345 54.1729 63.4886 54.815 63.9501 55.9304C64.2588 56.6764 65.0758 57.0663 65.8505 56.8372C66.6137 56.6114 67.3655 57.1949 67.3958 57.9484C67.4236 58.6426 66.872 59.2102 66.1872 59.2102H56.9878C56.4259 59.2102 55.9707 59.6661 55.9707 60.2285C55.9707 60.7908 56.4259 61.2467 56.9878 61.2467H66.1872C68.0282 61.2467 69.5021 59.7187 69.4282 57.867ZM46.6036 23.2398C46.8102 22.8267 47.3976 22.8283 47.6032 23.2398C47.9955 24.0254 50.96 29.9614 52.0984 32.2411L48.5137 35.9082C48.4267 35.9968 48.2856 36.0028 48.1917 35.922L46.0192 34.0503C45.0492 33.2144 43.5824 33.3455 42.7757 34.3415L41.611 35.78C41.5258 35.8854 41.3693 35.8978 41.2683 35.8044L40.6259 35.2095C44.6578 27.1362 44.5538 27.3445 46.6036 23.2398ZM11.6438 44.2807L14.4199 49.8396L12.9433 51.3501L11.3153 49.9476C10.5894 49.3223 9.56994 49.3311 8.86587 49.8425L11.6438 44.2807ZM4.18796 59.2102L7.15898 53.261C8.61663 53.6265 9.26985 52.4706 10.0324 51.529L11.6564 52.9281C12.4456 53.6082 13.6336 53.5558 14.3607 52.8122L15.3825 51.7669L19.0999 59.2102H4.18796ZM26.3655 59.2102H21.3742L14.5359 45.5175L22.8657 28.8385C22.9854 28.5988 23.3242 28.5987 23.4439 28.8386C24.3945 30.7421 27.107 30.74 28.0568 28.8386L32.7844 19.3717C32.9042 19.132 33.2428 19.132 33.3625 19.3717L39.812 32.2857C39.2357 33.4392 27.4773 56.9841 26.3655 59.2102ZM61.6368 52.4122C61.3058 52.4208 60.9784 52.4663 60.6588 52.5483C59.7076 51.0249 58.0359 50.096 56.2461 50.096C53.8594 50.096 51.7932 51.7372 51.2083 54.003C50.539 53.9879 49.8646 54.1593 49.2641 54.5233C48.7927 54.4065 48.2957 54.3927 47.8177 54.4832C47.08 53.4333 45.8692 52.7945 44.5754 52.7945C42.8384 52.7945 41.3208 53.9277 40.8011 55.5495C39.3397 55.6383 38.1484 56.8498 38.1271 58.3546C38.1231 58.634 38.168 58.9485 38.244 59.21H28.64L39.6787 37.1063L39.8873 37.2995C40.8487 38.1899 42.3662 38.0815 43.1915 37.0625L44.3562 35.6241C44.4404 35.5203 44.5918 35.5071 44.6926 35.5939L46.8653 37.4657C47.7701 38.245 49.133 38.1865 49.9678 37.3326L53.0611 34.1682L62.1821 52.4315C62.0033 52.414 61.8182 52.4075 61.6368 52.4122Z" fill="url(#paint8_linear)"/>
<path d="M18.6906 17.7385C20.9473 17.7385 23.0074 16.4975 24.0672 14.4999C24.3305 14.0033 24.142 13.3868 23.646 13.1228C23.1499 12.8589 22.5343 13.0479 22.2705 13.5444C21.5647 14.8752 20.1929 15.7017 18.6906 15.7017C16.4569 15.7017 14.6396 13.8823 14.6396 11.6459C14.6396 9.40958 16.4569 7.59016 18.6906 7.59016C20.1929 7.59016 21.5646 8.41671 22.2705 9.74751C22.5339 10.244 23.1497 10.433 23.646 10.1691C24.142 9.90527 24.3307 9.28889 24.0672 8.79198C23.0075 6.79429 20.9473 5.55337 18.6906 5.55337C15.3353 5.55337 12.6054 8.28638 12.6054 11.6458C12.6054 15.0052 15.3353 17.7385 18.6906 17.7385Z" fill="url(#paint9_linear)"/>
<defs>
<linearGradient id="paint0_linear" x1="29.6166" y1="-16.3635" x2="64.1853" y2="44.512" gradientUnits="userSpaceOnUse">
<stop stop-color="#FF2E2E"/>
<stop offset="1" stop-color="#D52E43"/>
</linearGradient>
<linearGradient id="paint1_linear" x1="29.6166" y1="-16.3635" x2="64.1853" y2="44.512" gradientUnits="userSpaceOnUse">
<stop stop-color="#FF2E2E"/>
<stop offset="1" stop-color="#D52E43"/>
</linearGradient>
<linearGradient id="paint2_linear" x1="29.6166" y1="-16.3635" x2="64.1853" y2="44.512" gradientUnits="userSpaceOnUse">
<stop stop-color="#FF2E2E"/>
<stop offset="1" stop-color="#D52E43"/>
</linearGradient>
<linearGradient id="paint3_linear" x1="29.6166" y1="-16.3635" x2="64.1853" y2="44.512" gradientUnits="userSpaceOnUse">
<stop stop-color="#FF2E2E"/>
<stop offset="1" stop-color="#D52E43"/>
</linearGradient>
<linearGradient id="paint4_linear" x1="29.6166" y1="-16.3635" x2="64.1853" y2="44.512" gradientUnits="userSpaceOnUse">
<stop stop-color="#FF2E2E"/>
<stop offset="1" stop-color="#D52E43"/>
</linearGradient>
<linearGradient id="paint5_linear" x1="29.6166" y1="-16.3635" x2="64.1853" y2="44.512" gradientUnits="userSpaceOnUse">
<stop stop-color="#FF2E2E"/>
<stop offset="1" stop-color="#D52E43"/>
</linearGradient>
<linearGradient id="paint6_linear" x1="29.6166" y1="-16.3635" x2="64.1853" y2="44.512" gradientUnits="userSpaceOnUse">
<stop stop-color="#FF2E2E"/>
<stop offset="1" stop-color="#D52E43"/>
</linearGradient>
<linearGradient id="paint7_linear" x1="29.6166" y1="-16.3635" x2="64.1853" y2="44.512" gradientUnits="userSpaceOnUse">
<stop stop-color="#FF2E2E"/>
<stop offset="1" stop-color="#D52E43"/>
</linearGradient>
<linearGradient id="paint8_linear" x1="29.6166" y1="-16.3635" x2="64.1853" y2="44.512" gradientUnits="userSpaceOnUse">
<stop stop-color="#FF2E2E"/>
<stop offset="1" stop-color="#D52E43"/>
</linearGradient>
<linearGradient id="paint9_linear" x1="29.6166" y1="-16.3635" x2="64.1853" y2="44.512" gradientUnits="userSpaceOnUse">
<stop stop-color="#FF2E2E"/>
<stop offset="1" stop-color="#D52E43"/>
</linearGradient>
</defs>
</svg>
